<mxfile host="app.diagrams.net" modified="2024-03-09T02:11:46.578Z" agent="Mozilla/5.0 (Windows NT 10.0; Win64; x64) AppleWebKit/537.36 (KHTML, like Gecko) Chrome/122.0.0.0 Safari/537.36 Edg/122.0.0.0" version="24.0.2" etag="d2gPBjPPm6FaV6Qgn-GI" type="github">
  <diagram name="Trang-1" id="JlOUcsM6OprTGW5b34WS">
    <mxGraphModel>
      <root>
        <mxCell id="0" />
        <mxCell id="1" parent="0" />
      </root>
    </mxGraphModel>
  </diagram>
</mxfile>
